<svg xmlns="http://www.w3.org/2000/svg" width="24" height="24" viewBox="0 0 24 24"><path fill="#999" d="M21.656 18.771c.07.432-.018.82-.26 1.166-.239.347-.57.558-.984.629l-2.489.41a1.385 1.385 0 0 1-1.108-.271 1.532 1.532 0 0 1-.611-1.026L14.086 5.706a1.667 1.667 0 0 1 .267-1.158c.11-.167.254-.303.428-.411.173-.108.361-.184.57-.227l2.469-.41c.412-.072.785.021 1.119.281.332.259.531.604.602 1.038l2.115 13.952zM11.992 3c.416 0 .77.152 1.059.454.29.303.436.671.436 1.104v14.447c0 .433-.146.8-.436 1.103a1.406 1.406 0 0 1-1.059.455H9.836c-.415 0-.768-.151-1.057-.455a1.533 1.533 0 0 1-.437-1.103V4.558c0-.433.11-.8.335-1.104.221-.302.548-.454.973-.454h2.342zm.507 10.902c.14 0 .255-.067.354-.207a.823.823 0 0 0 .144-.486.828.828 0 0 0-.144-.498c-.1-.129-.215-.193-.354-.193h-2.156c-.139 0-.255.064-.353.193a.806.806 0 0 0-.146.498c0 .188.049.35.146.486.098.14.214.207.353.207h2.156zm0-2.75c.14 0 .255-.067.354-.205a.862.862 0 0 0 .144-.508.83.83 0 0 0-.144-.498c-.1-.133-.215-.195-.354-.195h-2.156c-.139 0-.255.064-.353.195-.098.129-.146.297-.146.498s.049.371.146.508c.098.136.214.205.353.205h2.156zM5.988 3c.414 0 .772.152 1.067.454.297.303.445.671.445 1.104v14.447c0 .433-.148.8-.445 1.103-.3.304-.654.455-1.066.455H3.833c-.416 0-.772-.151-1.065-.455a1.502 1.502 0 0 1-.447-1.103V4.558c0-.433.146-.8.447-1.104A1.44 1.44 0 0 1 3.833 3h2.155zM3.914 8.408a.441.441 0 0 0-.371.195.8.8 0 0 0-.147.497c0 .188.049.35.146.487.098.134.221.205.371.205h1.99c.15 0 .271-.067.363-.205a.868.868 0 0 0 .136-.487.846.846 0 0 0-.135-.497.42.42 0 0 0-.363-.195h-1.99zm2.074 6.79c.15 0 .271-.065.363-.195a.837.837 0 0 0 .137-.478c0-.202-.045-.362-.137-.485a.428.428 0 0 0-.363-.185H3.914a.45.45 0 0 0-.371.185.767.767 0 0 0-.146.485c0 .188.049.348.146.478s.221.195.371.195h2.074zm0-2.659c.15 0 .271-.066.363-.195a.871.871 0 0 0 .137-.498.842.842 0 0 0-.137-.498.42.42 0 0 0-.363-.193H3.914a.444.444 0 0 0-.371.193.808.808 0 0 0-.146.498c0 .203.049.369.146.498s.221.195.371.195h2.074z"/></svg>