<svg xmlns="http://www.w3.org/2000/svg" width="24" height="24" viewBox="0 0 24 24"><path fill="#999" d="M9.161 13.018a.526.526 0 1 0 .006 1.052.526.526 0 0 0-.006-1.052zm9.591 5.048a.523.523 0 0 0-.521.531.526.526 0 1 0 .521-.531zm-1.955-.951a.184.184 0 0 0-.184.186v2.309a.184.184 0 1 0 .368 0v-2.309a.185.185 0 0 0-.184-.186h-.004.004zm-9.684-4.097a.526.526 0 1 0 .006 1.052.526.526 0 0 0-.006-1.052zm-2.037 0a.525.525 0 1 0 .007 1.05.524.524 0 1 0-.01-1.05H5.07h.006zm9.401 4.097a.184.184 0 0 0-.186.186v2.309a.185.185 0 1 0 .37 0v-2.309a.187.187 0 0 0-.184-.186h-.008.008zm-5.31.951a.526.526 0 1 0 .53.528.528.528 0 0 0-.533-.527H9.16h.007zm-2.037 0a.526.526 0 1 0 .53.528.528.528 0 0 0-.533-.527h-.014.017zm8.516-.951a.184.184 0 0 0-.184.186v2.309a.184.184 0 1 0 .368 0v-2.309a.184.184 0 0 0-.184-.186h-.014.014zm-10.563.951a.526.526 0 1 0 .004.001H5.07h.013zm7.073-5.996a.182.182 0 0 0-.184.183v2.293c0 .103.082.183.184.183s.184-.08.184-.183v-2.312a.184.184 0 0 0-.195-.17l-.004.002.015.004zm0 5.048a.185.185 0 0 0-.184.187v2.307c0 .104.082.185.184.185s.184-.081.184-.185v-2.307a.18.18 0 0 0-.179-.188h-.021l.016.001zm1.164 0a.185.185 0 0 0-.184.187v2.307c0 .104.082.185.184.185s.184-.081.184-.185v-2.307a.181.181 0 0 0-.18-.188h-.021l.017.001zm2.33-10.094a.184.184 0 0 0-.184.184v2.308c0 .102.082.184.184.184.1 0 .184-.082.184-.184V7.208a.185.185 0 0 0-.178-.188l-.023.001.017.003zm-2.33 0a.184.184 0 0 0-.184.184v2.308c0 .102.082.184.184.184s.184-.082.184-.184V7.208a.184.184 0 0 0-.18-.188l-.021.001.017.003zm1.164 0c-.1 0-.182.082-.182.184v2.308a.184.184 0 1 0 .368 0V7.208a.185.185 0 0 0-.18-.188l-.02.001.014.003zm-5.306.95a.525.525 0 1 0 .529.528.528.528 0 0 0-.525-.534h-.021l.017.006zm2.982-.95a.184.184 0 0 0-.184.184v2.308c0 .102.082.184.184.184s.184-.082.184-.184V7.208a.185.185 0 0 0-.179-.189.18.18 0 0 0-.024.002l.019.003zm9.022 3.148V6.576a.724.724 0 0 0-.428-.662L17.77 3H6.224L3.255 5.917a.727.727 0 0 0-.425.662v3.698a.725.725 0 0 0 .719.621.73.73 0 0 0-.73.728v3.599c0 .403.327.731.73.731a.73.73 0 0 0-.73.728v3.592c0 .401.327.724.729.724h16.879a.728.728 0 0 0 .729-.727V16.67c0-.4-.326-.727-.729-.727a.73.73 0 0 0 .729-.729v-3.59a.727.727 0 0 0-.729-.727.732.732 0 0 0 .736-.725v-.007l.019.007zm-.602 6.503v3.593a.129.129 0 0 1-.129.129H3.556a.129.129 0 0 1-.129-.129V16.67a.13.13 0 0 1 .129-.128h16.88c.07 0 .129.06.129.128l.015.005zm0-5.05v3.6a.13.13 0 0 1-.129.131H3.556a.13.13 0 0 1-.129-.131v-3.6a.13.13 0 0 1 .129-.129h16.88a.13.13 0 0 1 .129.129h.015zm0-1.457a.129.129 0 0 1-.129.129H3.556a.129.129 0 0 1-.129-.129V6.576c0-.071.058-.128.129-.128h16.88a.13.13 0 0 1 .129.128l.015 3.592zm-1.81-2.2a.525.525 0 1 0 .529.526.528.528 0 0 0-.531-.525h-.016l.018-.001zm-1.956-.951a.184.184 0 0 0-.184.185V9.51c0 .1.082.184.184.184s.184-.084.184-.184V7.201a.184.184 0 0 0-.186-.183l-.02.002.022-.003zm-11.591.968a.698.698 0 0 0-.112 0 .526.526 0 0 0-.53.523v.002a.386.386 0 0 0 0 .068.526.526 0 1 0 .658-.58l-.016-.013zm10.427 4.076a.184.184 0 0 0-.184.184v2.303c0 .102.082.184.184.184.1 0 .184-.082.184-.184v-2.311a.183.183 0 0 0-.195-.17h-.006l.017-.006zm-1.166 0c-.1 0-.182.082-.182.184v2.303a.184.184 0 1 0 .368 0v-2.311a.183.183 0 0 0-.195-.17h-.004l.013-.006zm-7.354-4.1a.525.525 0 1 0 .007 1.051.527.527 0 0 0 .524-.525.53.53 0 0 0-.539-.52h-.007l.015-.006zm9.683 4.1a.182.182 0 0 0-.184.184v2.303c0 .102.08.184.184.184a.184.184 0 0 0 .184-.184v-2.311a.181.181 0 0 0-.197-.17h-.004l.017-.006zm-3.493 0a.184.184 0 0 0-.184.184v2.303c0 .102.082.184.184.184s.184-.082.184-.184v-2.311a.18.18 0 0 0-.195-.17h-.006l.017-.006zm5.432.95a.527.527 0 0 0 .01 1.053.527.527 0 0 0 .521-.528.53.53 0 0 0-.529-.519v-.007h-.002z"/></svg>