<svg xmlns="http://www.w3.org/2000/svg" width="72" height="72" viewBox="0 0 72 72"><g fill="#FFF"><path d="M56.525 66H20.738V51.336h2.104v12.003h31.582V14H22.842v5.337h-2.104v-8.002h35.79L56.525 66z"/><path d="M10.213 63.339h11.578V66H10.213v-2.661zm46.312 0h4.211V66h-4.211v-2.661zm6.321 0H66V66h-3.154v-2.661z"/><path d="M28.868 42.604l-1.881-1.188.938-2.393v-6.037l-.938-2.389 1.881-1.188 1.162 2.939v7.309l-1.162 2.947zM6 63.339h2.104V66H6v-2.661zm12.629-46.673h-2.104V6h17.893v2.661H18.629v8.005zm-2.104 40.005h2.104v7.994h-2.104v-7.994zm4.213-41.383h2.104v37.676h-2.104V15.288z"/></g></svg>