<svg xmlns="http://www.w3.org/2000/svg" width="72" height="72" viewBox="0 0 72 72"><g fill="#FFF"><path d="M54.277 58.877h-31.87V47.695h1.873v9.152H52.4V19.218H24.279v4.069h-1.873v-6.099h31.869v41.688h.002z"/><path d="M35.65 66h-1.998V6h1.998l18.623 7.411v45.148L35.65 66zm-.121-57.864v55.741l16.873-6.717V14.851L35.529 8.136zm-22.5 48.714h10.31v2.027h-10.31V56.85zm41.248 0h3.75v2.027h-3.75V56.85zm5.625 0h2.814v2.027h-2.814V56.85z"/><path d="M39.178 41.029l-1.676-.906.836-1.828v-4.602l-.836-1.822 1.676-.906 1.035 2.241v5.57l-1.035 2.253zM9.283 56.85h1.874v2.027H9.283V56.85zm11.245-35.597h-1.872v-8.138h15.932v2.033H20.53l-.002 6.105zm-1.871 30.513h1.872v6.096h-1.872v-6.096z"/></g><g fill="none" stroke="#FFF" stroke-width="2.5" stroke-miterlimit="10"><path d="M14.656 48l24-24M38.656 48l-24-24"/></g></svg>