<svg xmlns="http://www.w3.org/2000/svg" width="72" height="72" viewBox="0 0 72 72"><g fill="#FFF"><path d="M57.563 58.878H25.688V47.693h1.872v9.154h28.122V19.219h-28.12v4.068H25.69v-6.1h31.873v41.691z"/><path d="M38.936 66h-1.998V6h1.998l18.623 7.411V58.56L38.936 66zm-.123-57.868v55.746l16.871-6.717V14.85L38.813 8.132zM16.315 56.848h10.308v2.03H16.315v-2.03zm41.248 0h3.748v2.03h-3.748v-2.03zm5.625 0H66v2.03h-2.813v-2.03h.001z"/><path opacity=".5" d="M33.187 36.509l-12.19-13.224v7.117H6.937v12.203h14.061v7.11l12.189-13.206z"/><path d="M20.064 52.184v-8.557H6V29.381h14.064v-8.557l14.448 15.679-14.448 15.681zM7.859 41.594h14.062v5.68l9.938-10.765-9.919-10.768v5.679H7.859v10.174zm34.603-.565l-1.676-.905.836-1.828v-4.603l-.836-1.821 1.676-.905 1.035 2.245v5.567l-1.035 2.25zM12.566 56.848h1.871v2.03h-1.871v-2.03zm11.247-35.596H21.94v-8.137h15.932v2.031h-14.06l.001 6.106zM21.94 51.764h1.871v6.096H21.94v-6.096z"/></g></svg>