<svg xmlns="http://www.w3.org/2000/svg" width="24" height="24" viewBox="0 0 24 24"><g fill="#999"><path d="M21 17.625V16.5h-1.001a2.928 2.928 0 0 0-.506-1.191l.696-.721-.676-.686-.707.721a2.83 2.83 0 0 0-1.183-.486v-1.012H16.5v1.002c-.432.078-.837.25-1.191.506l-.721-.697-.688.675.722.707c-.25.353-.416.757-.485 1.183h-1.012v1.125h1.001c.078.431.252.838.506 1.192l-.696.72.676.688.707-.722c.353.25.757.415 1.183.484V21h1.125v-1a2.952 2.952 0 0 0 1.192-.506l.72.695.687-.676-.721-.707c.25-.353.416-.757.484-1.183l1.011.002zm-3.937.912a1.475 1.475 0 1 1 .002-2.95 1.475 1.475 0 0 1-.002 2.95z"/><path d="M12 3a4.208 4.208 0 1 0 4.208 4.207A4.208 4.208 0 0 0 12 3zM3 20.416V21h10.417a6.19 6.19 0 0 1 1.405-9.124A8.997 8.997 0 0 0 3 20.416z"/></g></svg>