<svg xmlns="http://www.w3.org/2000/svg" width="24" height="24" viewBox="0 0 24 24"><g fill="#999"><path d="M15.48 6.965l-2.472-2.472a1.427 1.427 0 0 0-2.018 0l-6.16 6.158a1.24 1.24 0 0 0-.121.15 1.049 1.049 0 0 0-.133.232 1.195 1.195 0 0 0-.092.46c0 .61.458 1.125 1.042 1.189.05.008 4.294.012 4.294.012h8.496c.031 0 .063-.002.097-.004a1.202 1.202 0 0 0 1.004-1.664.903.903 0 0 0-.108-.194 1.339 1.339 0 0 0-.147-.188l-1.72-1.719-.545-.544"/><path d="M21.873 11.529a1.302 1.302 0 0 0-.143-.258 1.734 1.734 0 0 0-.199-.25L18.52 8.008l-.004.001a.33.33 0 1 0-.492.445.272.272 0 0 1 .024.024l3.011 3.013c.041.043.078.09.109.139a.87.87 0 0 1 .091.16.928.928 0 0 1-.852 1.291h-.715v7.049a.929.929 0 0 1-.928.928h-4.345a.93.93 0 0 1-.928-.928v-7.05h-2.983v7.051a.929.929 0 0 1-.928.928H5.235a.93.93 0 0 1-.929-.928V13.08h-.717c-.033.002-.065-.002-.099-.006a.928.928 0 0 1-.753-1.281.829.829 0 0 1 .095-.165.884.884 0 0 1 .103-.134l8.191-8.191a1.233 1.233 0 0 1 1.743 0l3.291 3.29a.332.332 0 1 0 .485-.454l-.015-.015.002-.002-3.29-3.291a1.9 1.9 0 0 0-2.686 0L2.46 11.027c-.06.063-.113.13-.161.201A1.518 1.518 0 0 0 2 12.15c0 .813.609 1.493 1.386 1.581.068.013.137.017.205.017h.051v6.382a1.596 1.596 0 0 0 1.595 1.596h4.342c.881 0 1.595-.713 1.596-1.596v-6.38h1.647v6.38a1.597 1.597 0 0 0 1.597 1.596h4.345c.879 0 1.594-.715 1.594-1.596v-6.38h.05A1.606 1.606 0 0 0 22 12.152c0-.215-.044-.426-.127-.623z"/></g></svg>