<svg xmlns="http://www.w3.org/2000/svg" width="44" height="44" viewBox="0 0 44 44"><circle fill="#8CC63F" cx="22" cy="22" r="15"/><path fill="#FFF" d="M19.375 20.547h12.632v2.543h-4.594v5.558c0 2.188-.854 3.398-2.563 3.63-.574.082-1.757.129-3.548.144a35.006 35.006 0 0 0-.697-2.83c1.271.097 2.181.138 2.728.123.794-.015 1.196-.472 1.21-1.374v-5.25h-5.167v-.738l-1.23 2.133a14.684 14.684 0 0 0-1.271-.902v8.941H14.25v-8.408a24.315 24.315 0 0 1-1.866 3.835c-.123-.929-.348-2.188-.676-3.773 1.011-1.654 1.798-3.493 2.358-5.517h-1.99v-2.687h2.174v-3.609h2.625v3.609h1.928v2.687h-1.928v2.071c.888.492 1.723.95 2.501 1.374v-1.56zm3.979-7.773l2.871-.595.841 2.543h4.799v4.389H29.24v-1.928h-7.219v1.928h-2.624v-4.389h4.654c-.273-.861-.506-1.51-.697-1.948z"/></svg>