<svg xmlns="http://www.w3.org/2000/svg" width="44" height="44" viewBox="0 0 44 44"><g fill="#FFF"><path opacity=".5" d="M10.686 28.365c2.453-.914 3.774-1.363 4.251-1.514a4.086 4.086 0 0 0 1.24-.562c.216-.129.414-.29.586-.476v-.083a1.973 1.973 0 0 1-.137-.625 1.305 1.305 0 0 1 0-.342l-.545-.504a3.703 3.703 0 0 1-.887-1.254c-.135-.326-.272-.64-.38-.982v-.243a4.746 4.746 0 0 1-.695-.777 4.533 4.533 0 0 1-.655-1.458 4.86 4.86 0 0 1-.231-2.003c.045-.404.136-.801.273-1.185.063-.191.141-.378.231-.559.004-.725.055-1.448.15-2.167.085-.744.222-1.481.409-2.207h-.273a5.37 5.37 0 0 0-1.021.109 4.523 4.523 0 0 0-1.036.314 5.546 5.546 0 0 0-1.022.64c-.361.291-.67.641-.913 1.035a5.595 5.595 0 0 0-.668 1.513c-.145.523-.25 1.056-.313 1.594-.068.588-.096 1.18-.082 1.771a1.996 1.996 0 0 0-.381 1.036 2.053 2.053 0 0 0 0 .708c.06.213.151.415.272.6.081.117.173.226.272.328a1.2 1.2 0 0 0 .313.164l.205.708c.082.205.15.396.246.599.068.169.17.321.299.45.23.194.449.403.654.627.215.233.332.541.327.856v.643c.003.199-.03.398-.095.586-.08.205-.196.395-.342.559a3.231 3.231 0 0 1-.708.586 4.843 4.843 0 0 1-1.363.601c-.354.096-1.581.544-2.411.846v5.774h.122c0-.338.082-.721.15-1.225v-.137a4.742 4.742 0 0 1 1.567-3.025 7.46 7.46 0 0 1 2.412-1.268h.177l.002-.051zm26.107-.914c-.396-.11-.787-.242-1.172-.395a3.618 3.618 0 0 1-.926-.586 2.063 2.063 0 0 1-.506-.684 2.19 2.19 0 0 1-.162-.723 2.853 2.853 0 0 1 .162-1.172 1.23 1.23 0 0 1 .221-.342c.092-.101.195-.188.313-.259l.352-.313c.137-.131.244-.289.316-.463.096-.188.176-.385.242-.584 0-.232.139-.477.191-.722.154-.052.301-.136.424-.246.121-.138.225-.294.301-.463.107-.246.178-.509.201-.777a2.437 2.437 0 0 0 0-.627 2.513 2.513 0 0 0-.148-.408.527.527 0 0 0-.203-.287 11.723 11.723 0 0 0-.109-1.853 11.704 11.704 0 0 0-.367-1.676 5.798 5.798 0 0 0-.887-1.622 3.113 3.113 0 0 0-.625-.641 5.893 5.893 0 0 0-1.949-.995 4.412 4.412 0 0 0-1.188-.164h-.545c.193.675.334 1.362.424 2.058.096.687.148 1.378.162 2.071.238.425.402.885.49 1.363.076.506.076 1.02 0 1.526a5.926 5.926 0 0 1-.449 1.675 3.979 3.979 0 0 1-1.049 1.364l-.094.303v.082c-.127.328-.266.654-.408.981a4.097 4.097 0 0 1-1.268 1.665v.599c.002.264-.061.526-.18.762.225.182.473.328.734.438.439.19.898.345 1.363.464a9.59 9.59 0 0 1 1.361.53l1.363.627.777.341a7.343 7.343 0 0 1 1.879 1.104 4.966 4.966 0 0 1 1.443 2.234 8.22 8.22 0 0 1 .301 1.622 2.5 2.5 0 0 1 .082.683h.082v-5.942c-.443-.203-.9-.385-1.363-.544h.41v-.004h.004z"/><path d="M36.207 31.659a2.999 2.999 0 0 0-.898-1.362 6.326 6.326 0 0 0-1.443-.845c-.531-.22-2.877-1.363-3.463-1.459a13.555 13.555 0 0 1-1.621-.56 4.369 4.369 0 0 1-1.268-.805 2.771 2.771 0 0 1-.682-.939 2.685 2.685 0 0 1-.23-.979 3.964 3.964 0 0 1 .26-1.64c.07-.17.174-.325.301-.461.123-.13.262-.25.408-.354.18-.13.35-.276.502-.436a2.23 2.23 0 0 0 .438-.613c.125-.273.23-.545.344-.817.107-.273.176-.653.258-.981.184-.082.348-.203.479-.355.18-.182.328-.394.438-.627.145-.337.234-.696.27-1.063a2.522 2.522 0 0 0 0-.858 2.314 2.314 0 0 0-.189-.572.727.727 0 0 0-.285-.395 15.511 15.511 0 0 0-.148-2.548 11.901 11.901 0 0 0-.52-2.303 7.251 7.251 0 0 0-1.104-2.249 4.432 4.432 0 0 0-.869-.872 6.246 6.246 0 0 0-1.199-.79 9.74 9.74 0 0 0-1.473-.559A6.145 6.145 0 0 0 22.868 6a8.37 8.37 0 0 0-1.361.136c-.471.09-.929.237-1.364.438a6.346 6.346 0 0 0-2.821 2.303 7.162 7.162 0 0 0-.899 2.071 16.362 16.362 0 0 0-.463 4.593 2.395 2.395 0 0 0-.354.668 3.517 3.517 0 0 0-.218.694c-.028.327.009.656.109.967.067.296.188.578.355.832.114.16.242.311.381.45.125.099.268.173.422.218l.299.996c.096.272.205.544.314.804.096.235.24.449.422.626a12 12 0 0 1 .899.859c.29.322.454.74.463 1.171v.899a2.738 2.738 0 0 1-.136.803 2.723 2.723 0 0 1-.477.765c-.28.308-.601.571-.954.79a5.667 5.667 0 0 1-1.785.833c-.695.188-3.666 1.295-4.306 1.539a5.345 5.345 0 0 0-1.676.938 2.973 2.973 0 0 0-.886 1.787 7.189 7.189 0 0 0-.122 2.451c-.01.557.157 1.098.477 1.555a5.837 5.837 0 0 0 1.54.528 62.073 62.073 0 0 0 12.414 1.283c4.088.05 8.164-.513 12.086-1.664a2.05 2.05 0 0 0 .846-.464c.158-.319.262-.665.301-1.021.066-.475.1-.953.096-1.433 0-.489 0-.097-.066-.586a5.993 5.993 0 0 0-.219-1.228l.022.058zm-11.568 3.052a4.62 4.62 0 0 1-.52.572 3.926 3.926 0 0 1-.598.49.88.88 0 0 1-.465.205 1.073 1.073 0 0 1-.436-.19 5.083 5.083 0 0 1-.613-.49 4.406 4.406 0 0 1-.531-.587.777.777 0 0 1-.218-.436c.007-.268.04-.53.095-.791 0-.338.151-.721.231-1.104.083-.381.178-.763.287-1.131.108-.367.149-.558.231-.83a3.398 3.398 0 0 1-.531-.612.873.873 0 0 1-.164-.502c.006-.187.058-.361.15-.52.089-.161.2-.311.327-.438a4.42 4.42 0 0 1 .503-.465h1.47l.508.465c.148.129.273.285.365.463a.878.878 0 0 1 .164.52 1.17 1.17 0 0 1-.205.625 3.84 3.84 0 0 1-.559.574c0 .244.137.529.203.912l.248 1.129c0 .369.146.725.205 1.052.043.22.068.442.078.666a.805.805 0 0 1-.217.45l-.008-.027z"/></g></svg>