<svg xmlns="http://www.w3.org/2000/svg" width="44" height="44" viewBox="0 0 44 44"><g fill="#FFF"><path d="M34.219 33.951H16.157v-5.842h1.061v4.781h15.938V13.234H17.218v2.124h-1.061v-3.186h18.062v21.779z"/><path d="M23.665 37.671h-1.133V6.329h1.133L34.219 10.2v23.585l-10.554 3.886zm-.069-30.226v29.12l9.559-3.51V10.951l-9.559-3.506zM10.845 32.891h5.843v1.063h-5.843v-1.063zm23.374 0h2.125v1.063h-2.125v-1.063zm3.188 0H39v1.063h-1.593v-1.063z"/><path opacity=".5" d="M20.406 22.265l-6.905-6.907v3.722H5.534v6.374h7.967v3.718l6.905-6.907z"/><path d="M12.969 30.453v-4.469H5v-7.438h7.969v-4.47l8.189 8.189-8.189 8.188zm-6.914-5.531h7.967v2.967l5.632-5.624-5.621-5.625v2.966H6.055v5.316zm19.608-.295l-.95-.473.475-.954v-2.403l-.475-.951.95-.473.586 1.171v2.909l-.586 1.174zM8.721 32.891h1.062v1.063H8.721v-1.063zm6.373-18.594h-1.061v-4.251h9.031v1.063h-7.97v3.188zm-1.061 15.937h1.061v3.186h-1.061v-3.186z"/></g></svg>