<svg xmlns="http://www.w3.org/2000/svg" width="44" height="44" viewBox="0 0 44 44"><g fill="#FFF"><path d="M37.5 31.688V29.75h-1.725a5.116 5.116 0 0 0-.871-2.055l1.201-1.238-1.162-1.184-1.221 1.24a4.842 4.842 0 0 0-2.035-.834v-1.742h-1.938v1.725c-.74.134-1.44.432-2.054.872l-1.238-1.201-1.184 1.162 1.24 1.22a4.85 4.85 0 0 0-.834 2.035h-1.744v1.938h1.727a5.06 5.06 0 0 0 .872 2.056l-1.201 1.237 1.162 1.185 1.22-1.24a4.838 4.838 0 0 0 2.034.834v1.74h1.938v-1.725a5.086 5.086 0 0 0 2.055-.873l1.238 1.201 1.184-1.162-1.241-1.219a4.862 4.862 0 0 0 .835-2.035H37.5v.001zm-6.781 1.569a2.537 2.537 0 1 1 0-5.075 2.538 2.538 0 1 1 0 5.075z"/><path d="M22 6.5a7.247 7.247 0 1 0 7.247 7.246A7.247 7.247 0 0 0 22 6.5zM6.5 36.492V37.5h17.939c-3.739-4.542-3.09-11.258 1.451-15a11.2 11.2 0 0 1 .971-.713c-8.127-2.685-16.896 1.727-19.578 9.855a15.53 15.53 0 0 0-.783 4.85z"/></g></svg>