<svg t="1577693599977" class="icon" viewBox="0 0 1024 1024" version="1.1" xmlns="http://www.w3.org/2000/svg" p-id="6387" width="30" height="30"><path d="M938.666667 245.333333h-160V85.312a21.312 21.312 0 1 0-42.666667 0V245.333333H576a21.333333 21.333333 0 1 0 0 42.666667h160v159.978667a21.333333 21.333333 0 1 0 42.666667 0V288H938.666667a21.333333 21.333333 0 1 0 0-42.666667z" p-id="6388"></path><path d="M895.957333 513.045333a21.312 21.312 0 0 0-42.581333 0H853.333333v361.6c0 23.530667-19.114667 42.666667-42.666666 42.666667H149.333333c-23.530667 0-42.666667-19.136-42.666666-42.666667v-661.333333c0-23.530667 19.136-42.666667 42.666666-42.666667h358.933334a21.333333 21.333333 0 0 0 0-42.666666H149.333333c-47.061333 0-85.333333 38.272-85.333333 85.333333v661.333333c0 47.061333 38.272 85.333333 85.333333 85.333334h661.333334c47.061333 0 85.333333-38.272 85.333333-85.333334v-361.6h-0.042667z" p-id="6389"></path></svg>